<svg viewBox="0 0 1200 300" xmlns="http://www.w3.org/2000/svg">
<defs>
  <linearGradient id="sky" x1="0" y1="0" x2="0" y2="1">
    <stop offset="0%" stop-color="#1b1030"/>
    <stop offset="45%" stop-color="#4b2e56"/>
    <stop offset="75%" stop-color="#7c4f72"/>
    <stop offset="100%" stop-color="#a86b8a"/>
  </linearGradient>
  <filter id="glow" x="-100%" y="-100%" width="300%" height="300%">
    <feGaussianBlur stdDeviation="6" result="b"/>
    <feMerge><feMergeNode in="b"/><feMergeNode in="SourceGraphic"/></feMerge>
  </filter>
  <filter id="softblur"><feGaussianBlur stdDeviation="10"/></filter>
  <clipPath id="frame"><rect x="0" y="0" width="1200" height="300" rx="10"/></clipPath>
</defs>

<g clip-path="url(#frame)">
<rect width="1200" height="300" fill="url(#sky)"/>

<!-- aurora ribbons -->
<path d="M0,90 Q300,50 600,95 T1200,80" stroke="#ffb0d9" stroke-width="26" fill="none" opacity="0.18" filter="url(#softblur)">
  <animate attributeName="opacity" values="0.10;0.28;0.10" dur="7s" repeatCount="indefinite"/>
</path>
<path d="M0,130 Q320,170 640,125 T1200,140" stroke="#ffe0a0" stroke-width="20" fill="none" opacity="0.14" filter="url(#softblur)">
  <animate attributeName="opacity" values="0.08;0.22;0.08" dur="9s" begin="1s" repeatCount="indefinite"/>
</path>
<path d="M0,60 Q260,20 560,55 T1200,35" stroke="#9adfd0" stroke-width="16" fill="none" opacity="0.10" filter="url(#softblur)">
  <animate attributeName="opacity" values="0.06;0.18;0.06" dur="8s" begin="2s" repeatCount="indefinite"/>
</path>

<rect x="764.5" y="12.2" width="2" height="2" fill="#fff6e0"><animate attributeName="opacity" values="0.15;1;0.15" dur="2.05s" begin="0.2s" repeatCount="indefinite"/></rect>
<rect x="884.0" y="99.1" width="3" height="3" fill="#fff6e0"><animate attributeName="opacity" values="0.15;1;0.15" dur="1.85s" begin="0.44s" repeatCount="indefinite"/></rect>
<rect x="606.3" y="12.4" width="2" height="2" fill="#fff6e0" opacity="0.75"/>
<rect x="505.0" y="83.0" width="2" height="2" fill="#fff6e0" opacity="0.40"/>
<rect x="960.9" y="124.6" width="2" height="2" fill="#fff6e0"><animate attributeName="opacity" values="0.15;1;0.15" dur="2.19s" begin="1.53s" repeatCount="indefinite"/></rect>
<rect x="130.6" y="71.4" width="2" height="2" fill="#fff6e0" opacity="0.70"/>
<rect x="962.4" y="129.9" width="3" height="3" fill="#fff6e0"><animate attributeName="opacity" values="0.15;1;0.15" dur="3.46s" begin="0.16s" repeatCount="indefinite"/></rect>
<rect x="356.0" y="113.0" width="2" height="2" fill="#fff6e0" opacity="0.75"/>
<rect x="64.1" y="46.1" width="2" height="2" fill="#fff6e0" opacity="0.83"/>
<rect x="1032.5" y="71.5" width="2" height="2" fill="#fff6e0" opacity="0.58"/>
<rect x="446.8" y="43.0" width="2" height="2" fill="#fff6e0" opacity="0.74"/>
<rect x="94.3" y="114.0" width="3" height="3" fill="#fff6e0" opacity="0.48"/>
<rect x="457.8" y="173.3" width="3" height="3" fill="#fff6e0" opacity="0.51"/>
<rect x="392.7" y="136.3" width="2" height="2" fill="#fff6e0"><animate attributeName="opacity" values="0.15;1;0.15" dur="1.86s" begin="0.63s" repeatCount="indefinite"/></rect>
<rect x="325.9" y="43.2" width="3" height="3" fill="#fff6e0" opacity="0.56"/>
<rect x="783.4" y="74.1" width="3" height="3" fill="#fff6e0" opacity="0.53"/>
<rect x="301.0" y="101.7" width="2" height="2" fill="#fff6e0" opacity="0.61"/>
<rect x="698.6" y="68.5" width="2" height="2" fill="#fff6e0" opacity="0.45"/>
<rect x="65.6" y="26.3" width="3" height="3" fill="#fff6e0"><animate attributeName="opacity" values="0.15;1;0.15" dur="3.02s" begin="1.19s" repeatCount="indefinite"/></rect>
<rect x="464.0" y="107.5" width="2" height="2" fill="#fff6e0" opacity="0.89"/>
<rect x="1025.7" y="9.9" width="3" height="3" fill="#fff6e0"><animate attributeName="opacity" values="0.15;1;0.15" dur="3.39s" begin="1.5s" repeatCount="indefinite"/></rect>
<rect x="916.9" y="64.8" width="2" height="2" fill="#fff6e0"><animate attributeName="opacity" values="0.15;1;0.15" dur="2.62s" begin="1.91s" repeatCount="indefinite"/></rect>
<rect x="1043.5" y="52.0" width="3" height="3" fill="#fff6e0" opacity="0.65"/>
<rect x="135.6" y="112.4" width="3" height="3" fill="#fff6e0" opacity="0.50"/>
<rect x="451.2" y="35.0" width="3" height="3" fill="#fff6e0" opacity="0.70"/>
<rect x="586.6" y="26.7" width="2" height="2" fill="#fff6e0" opacity="0.82"/>
<rect x="372.9" y="17.7" width="3" height="3" fill="#fff6e0" opacity="0.44"/>
<rect x="583.5" y="19.6" width="3" height="3" fill="#fff6e0" opacity="0.46"/>
<rect x="570.8" y="99.8" width="2" height="2" fill="#fff6e0" opacity="0.70"/>
<rect x="1147.9" y="163.1" width="3" height="3" fill="#fff6e0" opacity="0.76"/>
<rect x="480.8" y="120.2" width="2" height="2" fill="#fff6e0"><animate attributeName="opacity" values="0.15;1;0.15" dur="2.73s" begin="0.24s" repeatCount="indefinite"/></rect>
<rect x="275.1" y="64.5" width="3" height="3" fill="#fff6e0" opacity="0.69"/>
<rect x="18.5" y="126.2" width="2" height="2" fill="#fff6e0"><animate attributeName="opacity" values="0.15;1;0.15" dur="3.43s" begin="1.72s" repeatCount="indefinite"/></rect>
<rect x="93.6" y="47.7" width="3" height="3" fill="#fff6e0" opacity="0.67"/>
<rect x="863.6" y="155.4" width="3" height="3" fill="#fff6e0" opacity="0.79"/>
<rect x="962.8" y="39.8" width="2" height="2" fill="#fff6e0" opacity="0.58"/>
<rect x="495.1" y="152.3" width="2" height="2" fill="#fff6e0" opacity="0.89"/>
<rect x="126.1" y="75.2" width="2" height="2" fill="#fff6e0" opacity="0.45"/>
<rect x="236.1" y="97.6" width="2" height="2" fill="#fff6e0"><animate attributeName="opacity" values="0.15;1;0.15" dur="2.3s" begin="0.5s" repeatCount="indefinite"/></rect>
<rect x="1099.5" y="82.0" width="3" height="3" fill="#fff6e0"><animate attributeName="opacity" values="0.15;1;0.15" dur="2.97s" begin="1.08s" repeatCount="indefinite"/></rect>
<rect x="27.4" y="23.6" width="2" height="2" fill="#fff6e0"><animate attributeName="opacity" values="0.15;1;0.15" dur="2.67s" begin="0.43s" repeatCount="indefinite"/></rect>
<rect x="483.2" y="17.8" width="2" height="2" fill="#fff6e0"><animate attributeName="opacity" values="0.15;1;0.15" dur="2.5s" begin="1.85s" repeatCount="indefinite"/></rect>
<rect x="936.5" y="55.6" width="3" height="3" fill="#fff6e0" opacity="0.90"/>
<rect x="665.8" y="128.0" width="2" height="2" fill="#fff6e0"><animate attributeName="opacity" values="0.15;1;0.15" dur="2.19s" begin="0.12s" repeatCount="indefinite"/></rect>
<rect x="878.2" y="18.2" width="2" height="2" fill="#fff6e0"><animate attributeName="opacity" values="0.15;1;0.15" dur="2.85s" begin="1.01s" repeatCount="indefinite"/></rect>
<rect x="1016.2" y="34.3" width="3" height="3" fill="#fff6e0"><animate attributeName="opacity" values="0.15;1;0.15" dur="2.13s" begin="1.19s" repeatCount="indefinite"/></rect>

<!-- moon -->
<circle cx="1055" cy="55" r="30" fill="#ffe9b3" opacity="0.35" filter="url(#glow)">
  <animate attributeName="opacity" values="0.25;0.45;0.25" dur="4.5s" repeatCount="indefinite"/>
</circle>
<circle cx="1055" cy="55" r="19" fill="#fff3d0"/>
<circle cx="1063" cy="49" r="19" fill="#4b2e56"/>

<!-- hills -->
<rect x="0" y="170" width="41" height="130" fill="#3a5a55" opacity="0.55"/>
<rect x="40" y="170" width="41" height="130" fill="#3a5a55" opacity="0.55"/>
<rect x="80" y="180" width="41" height="120" fill="#3a5a55" opacity="0.55"/>
<rect x="120" y="180" width="41" height="120" fill="#3a5a55" opacity="0.55"/>
<rect x="160" y="180" width="41" height="120" fill="#3a5a55" opacity="0.55"/>
<rect x="200" y="180" width="41" height="120" fill="#3a5a55" opacity="0.55"/>
<rect x="240" y="180" width="41" height="120" fill="#3a5a55" opacity="0.55"/>
<rect x="280" y="190" width="41" height="110" fill="#3a5a55" opacity="0.55"/>
<rect x="320" y="200" width="41" height="100" fill="#3a5a55" opacity="0.55"/>
<rect x="360" y="200" width="41" height="100" fill="#3a5a55" opacity="0.55"/>
<rect x="400" y="210" width="41" height="90" fill="#3a5a55" opacity="0.55"/>
<rect x="440" y="210" width="41" height="90" fill="#3a5a55" opacity="0.55"/>
<rect x="480" y="200" width="41" height="100" fill="#3a5a55" opacity="0.55"/>
<rect x="520" y="190" width="41" height="110" fill="#3a5a55" opacity="0.55"/>
<rect x="560" y="190" width="41" height="110" fill="#3a5a55" opacity="0.55"/>
<rect x="600" y="190" width="41" height="110" fill="#3a5a55" opacity="0.55"/>
<rect x="640" y="190" width="41" height="110" fill="#3a5a55" opacity="0.55"/>
<rect x="680" y="190" width="41" height="110" fill="#3a5a55" opacity="0.55"/>
<rect x="720" y="180" width="41" height="120" fill="#3a5a55" opacity="0.55"/>
<rect x="760" y="170" width="41" height="130" fill="#3a5a55" opacity="0.55"/>
<rect x="800" y="170" width="41" height="130" fill="#3a5a55" opacity="0.55"/>
<rect x="840" y="170" width="41" height="130" fill="#3a5a55" opacity="0.55"/>
<rect x="880" y="180" width="41" height="120" fill="#3a5a55" opacity="0.55"/>
<rect x="920" y="190" width="41" height="110" fill="#3a5a55" opacity="0.55"/>
<rect x="960" y="190" width="41" height="110" fill="#3a5a55" opacity="0.55"/>
<rect x="1000" y="200" width="41" height="100" fill="#3a5a55" opacity="0.55"/>
<rect x="1040" y="190" width="41" height="110" fill="#3a5a55" opacity="0.55"/>
<rect x="1080" y="190" width="41" height="110" fill="#3a5a55" opacity="0.55"/>
<rect x="1120" y="200" width="41" height="100" fill="#3a5a55" opacity="0.55"/>
<rect x="1160" y="200" width="41" height="100" fill="#3a5a55" opacity="0.55"/>
<rect x="1200" y="210" width="41" height="90" fill="#3a5a55" opacity="0.55"/>
<rect x="0" y="175" width="41" height="125" fill="#2a4640" opacity="0.8"/>
<rect x="40" y="165" width="41" height="135" fill="#2a4640" opacity="0.8"/>
<rect x="80" y="175" width="41" height="125" fill="#2a4640" opacity="0.8"/>
<rect x="120" y="185" width="41" height="115" fill="#2a4640" opacity="0.8"/>
<rect x="160" y="185" width="41" height="115" fill="#2a4640" opacity="0.8"/>
<rect x="200" y="185" width="41" height="115" fill="#2a4640" opacity="0.8"/>
<rect x="240" y="185" width="41" height="115" fill="#2a4640" opacity="0.8"/>
<rect x="280" y="185" width="41" height="115" fill="#2a4640" opacity="0.8"/>
<rect x="320" y="195" width="41" height="105" fill="#2a4640" opacity="0.8"/>
<rect x="360" y="205" width="41" height="95" fill="#2a4640" opacity="0.8"/>
<rect x="400" y="215" width="41" height="85" fill="#2a4640" opacity="0.8"/>
<rect x="440" y="215" width="41" height="85" fill="#2a4640" opacity="0.8"/>
<rect x="480" y="215" width="41" height="85" fill="#2a4640" opacity="0.8"/>
<rect x="520" y="205" width="41" height="95" fill="#2a4640" opacity="0.8"/>
<rect x="560" y="195" width="41" height="105" fill="#2a4640" opacity="0.8"/>
<rect x="600" y="195" width="41" height="105" fill="#2a4640" opacity="0.8"/>
<rect x="640" y="195" width="41" height="105" fill="#2a4640" opacity="0.8"/>
<rect x="680" y="195" width="41" height="105" fill="#2a4640" opacity="0.8"/>
<rect x="720" y="185" width="41" height="115" fill="#2a4640" opacity="0.8"/>
<rect x="760" y="175" width="41" height="125" fill="#2a4640" opacity="0.8"/>
<rect x="800" y="165" width="41" height="135" fill="#2a4640" opacity="0.8"/>
<rect x="840" y="165" width="41" height="135" fill="#2a4640" opacity="0.8"/>
<rect x="880" y="175" width="41" height="125" fill="#2a4640" opacity="0.8"/>
<rect x="920" y="185" width="41" height="115" fill="#2a4640" opacity="0.8"/>
<rect x="960" y="195" width="41" height="105" fill="#2a4640" opacity="0.8"/>
<rect x="1000" y="205" width="41" height="95" fill="#2a4640" opacity="0.8"/>
<rect x="1040" y="205" width="41" height="95" fill="#2a4640" opacity="0.8"/>
<rect x="1080" y="195" width="41" height="105" fill="#2a4640" opacity="0.8"/>
<rect x="1120" y="195" width="41" height="105" fill="#2a4640" opacity="0.8"/>
<rect x="1160" y="205" width="41" height="95" fill="#2a4640" opacity="0.8"/>
<rect x="1200" y="215" width="41" height="85" fill="#2a4640" opacity="0.8"/>
<rect x="0" y="185" width="61" height="115" fill="#16241f" opacity="1.0"/>
<rect x="60" y="175" width="61" height="125" fill="#16241f" opacity="1.0"/>
<rect x="120" y="175" width="61" height="125" fill="#16241f" opacity="1.0"/>
<rect x="180" y="185" width="61" height="115" fill="#16241f" opacity="1.0"/>
<rect x="240" y="185" width="61" height="115" fill="#16241f" opacity="1.0"/>
<rect x="300" y="195" width="61" height="105" fill="#16241f" opacity="1.0"/>
<rect x="360" y="185" width="61" height="115" fill="#16241f" opacity="1.0"/>
<rect x="420" y="185" width="61" height="115" fill="#16241f" opacity="1.0"/>
<rect x="480" y="195" width="61" height="105" fill="#16241f" opacity="1.0"/>
<rect x="540" y="205" width="61" height="95" fill="#16241f" opacity="1.0"/>
<rect x="600" y="225" width="61" height="75" fill="#16241f" opacity="1.0"/>
<rect x="660" y="235" width="61" height="65" fill="#16241f" opacity="1.0"/>
<rect x="720" y="235" width="61" height="65" fill="#16241f" opacity="1.0"/>
<rect x="780" y="225" width="61" height="75" fill="#16241f" opacity="1.0"/>
<rect x="840" y="205" width="61" height="95" fill="#16241f" opacity="1.0"/>
<rect x="900" y="205" width="61" height="95" fill="#16241f" opacity="1.0"/>
<rect x="960" y="205" width="61" height="95" fill="#16241f" opacity="1.0"/>
<rect x="1020" y="205" width="61" height="95" fill="#16241f" opacity="1.0"/>
<rect x="1080" y="205" width="61" height="95" fill="#16241f" opacity="1.0"/>
<rect x="1140" y="195" width="61" height="105" fill="#16241f" opacity="1.0"/>
<rect x="1200" y="175" width="61" height="125" fill="#16241f" opacity="1.0"/>

<!-- trees -->
<g transform="skewX(0)">
<rect x="184.2" y="236.8" width="11.5" height="63.2" fill="#4a2f22"/>
<rect x="179.7" y="239.1" width="4.0" height="37.9" fill="#3a2419"/>
<rect x="149.8" y="175.6" width="16.7" height="16.7" fill="#d9679c"/>
<rect x="165.8" y="175.6" width="16.7" height="16.7" fill="#ff8fc0"/>
<rect x="181.9" y="175.6" width="16.7" height="16.7" fill="#d9679c"/>
<rect x="198.0" y="175.6" width="16.7" height="16.7" fill="#ff8fc0"/>
<rect x="214.1" y="175.6" width="16.7" height="16.7" fill="#d9679c"/>
<rect x="149.8" y="191.7" width="16.7" height="16.7" fill="#ff8fc0"/>
<rect x="165.8" y="191.7" width="16.7" height="16.7" fill="#ffc2de"/>
<rect x="181.9" y="191.7" width="16.7" height="16.7" fill="#ffc2de"/>
<rect x="198.0" y="191.7" width="16.7" height="16.7" fill="#ffc2de"/>
<rect x="214.1" y="191.7" width="16.7" height="16.7" fill="#ff8fc0"/>
<rect x="149.8" y="207.8" width="16.7" height="16.7" fill="#d9679c"/>
<rect x="165.8" y="207.8" width="16.7" height="16.7" fill="#ffc2de"/>
<rect x="181.9" y="207.8" width="16.7" height="16.7" fill="#ffc2de"/>
<rect x="198.0" y="207.8" width="16.7" height="16.7" fill="#ffc2de"/>
<rect x="214.1" y="207.8" width="16.7" height="16.7" fill="#d9679c"/>
<rect x="165.8" y="223.9" width="16.7" height="16.7" fill="#ff8fc0"/>
<rect x="181.9" y="223.9" width="16.7" height="16.7" fill="#ff8fc0"/>
<rect x="198.0" y="223.9" width="16.7" height="16.7" fill="#ff8fc0"/>
</g>
<g transform="skewX(-1)">
<rect x="645.8" y="253.2" width="8.5" height="46.8" fill="#4a2f22"/>
<rect x="642.4" y="254.9" width="3.0" height="28.1" fill="#3a2419"/>
<rect x="620.2" y="208.0" width="12.5" height="12.5" fill="#d9679c"/>
<rect x="632.1" y="208.0" width="12.5" height="12.5" fill="#ff8fc0"/>
<rect x="644.0" y="208.0" width="12.5" height="12.5" fill="#d9679c"/>
<rect x="655.9" y="208.0" width="12.5" height="12.5" fill="#ff8fc0"/>
<rect x="667.8" y="208.0" width="12.5" height="12.5" fill="#d9679c"/>
<rect x="620.2" y="219.9" width="12.5" height="12.5" fill="#ff8fc0"/>
<rect x="632.1" y="219.9" width="12.5" height="12.5" fill="#ffc2de"/>
<rect x="644.0" y="219.9" width="12.5" height="12.5" fill="#ffc2de"/>
<rect x="655.9" y="219.9" width="12.5" height="12.5" fill="#ffc2de"/>
<rect x="667.8" y="219.9" width="12.5" height="12.5" fill="#ff8fc0"/>
<rect x="620.2" y="231.8" width="12.5" height="12.5" fill="#d9679c"/>
<rect x="632.1" y="231.8" width="12.5" height="12.5" fill="#ffc2de"/>
<rect x="644.0" y="231.8" width="12.5" height="12.5" fill="#ffc2de"/>
<rect x="655.9" y="231.8" width="12.5" height="12.5" fill="#ffc2de"/>
<rect x="667.8" y="231.8" width="12.5" height="12.5" fill="#d9679c"/>
<rect x="632.1" y="243.7" width="12.5" height="12.5" fill="#ff8fc0"/>
<rect x="644.0" y="243.7" width="12.5" height="12.5" fill="#ff8fc0"/>
<rect x="655.9" y="243.7" width="12.5" height="12.5" fill="#ff8fc0"/>
</g>
<g transform="skewX(1)">
<rect x="1033.5" y="228.5" width="13.0" height="71.5" fill="#4a2f22"/>
<rect x="1028.3" y="231.1" width="4.5" height="42.9" fill="#3a2419"/>
<rect x="994.5" y="159.3" width="18.8" height="18.8" fill="#d9679c"/>
<rect x="1012.7" y="159.3" width="18.8" height="18.8" fill="#ff8fc0"/>
<rect x="1030.9" y="159.3" width="18.8" height="18.8" fill="#d9679c"/>
<rect x="1049.1" y="159.3" width="18.8" height="18.8" fill="#ff8fc0"/>
<rect x="1067.3" y="159.3" width="18.8" height="18.8" fill="#d9679c"/>
<rect x="994.5" y="177.5" width="18.8" height="18.8" fill="#ff8fc0"/>
<rect x="1012.7" y="177.5" width="18.8" height="18.8" fill="#ffc2de"/>
<rect x="1030.9" y="177.5" width="18.8" height="18.8" fill="#ffc2de"/>
<rect x="1049.1" y="177.5" width="18.8" height="18.8" fill="#ffc2de"/>
<rect x="1067.3" y="177.5" width="18.8" height="18.8" fill="#ff8fc0"/>
<rect x="994.5" y="195.7" width="18.8" height="18.8" fill="#d9679c"/>
<rect x="1012.7" y="195.7" width="18.8" height="18.8" fill="#ffc2de"/>
<rect x="1030.9" y="195.7" width="18.8" height="18.8" fill="#ffc2de"/>
<rect x="1049.1" y="195.7" width="18.8" height="18.8" fill="#ffc2de"/>
<rect x="1067.3" y="195.7" width="18.8" height="18.8" fill="#d9679c"/>
<rect x="1012.7" y="213.9" width="18.8" height="18.8" fill="#ff8fc0"/>
<rect x="1030.9" y="213.9" width="18.8" height="18.8" fill="#ff8fc0"/>
<rect x="1049.1" y="213.9" width="18.8" height="18.8" fill="#ff8fc0"/>
</g>
<g>
    <line x1="190" y1="164.79000000000002" x2="190" y2="178.79000000000002" stroke="#2c2016" stroke-width="2"/>
    <circle cx="190" cy="188.79000000000002" r="16" fill="#ffcf6b" opacity="0.25" filter="url(#glow)">
      <animate attributeName="opacity" values="0.15;0.4;0.15" dur="2.6s" repeatCount="indefinite"/>
    </circle>
    <rect x="185" y="178.79000000000002" width="10" height="12" fill="#5a4630"/>
    <rect x="187" y="180.79000000000002" width="6" height="8" fill="#ffcf6b">
      <animate attributeName="opacity" values="0.7;1;0.7" dur="1.8s" repeatCount="indefinite"/>
    </rect>
    </g>
<g>
    <line x1="1040" y1="148.98000000000002" x2="1040" y2="162.98000000000002" stroke="#2c2016" stroke-width="2"/>
    <circle cx="1040" cy="172.98000000000002" r="16" fill="#ffcf6b" opacity="0.25" filter="url(#glow)">
      <animate attributeName="opacity" values="0.15;0.4;0.15" dur="2.6s" repeatCount="indefinite"/>
    </circle>
    <rect x="1035" y="162.98000000000002" width="10" height="12" fill="#5a4630"/>
    <rect x="1037" y="164.98000000000002" width="6" height="8" fill="#ffcf6b">
      <animate attributeName="opacity" values="0.7;1;0.7" dur="1.8s" repeatCount="indefinite"/>
    </rect>
    </g>

<g transform="translate(590,258)">
  <rect x="0" y="10" width="70" height="6" fill="#5a3d28"/>
  <rect x="4" y="16" width="6" height="14" fill="#3a2717"/>
  <rect x="60" y="16" width="6" height="14" fill="#3a2717"/>
</g>
<g transform="translate(605,230)">
  <animateTransform attributeName="transform" type="translate" values="605,230;605,228;605,230" dur="2.4s" repeatCount="indefinite" additive="sum"/>
  <rect x="10" y="0" width="16" height="16" fill="#e0a97a"/>
  <rect x="10" y="0" width="16" height="6" fill="#3a2417"/>
  <rect x="8" y="16" width="20" height="16" fill="#4d6fae"/>
  <rect x="8" y="30" width="8" height="10" fill="#33517f"/>
  <rect x="20" y="30" width="8" height="10" fill="#33517f"/>
</g>

<rect x="803.2" y="-47.1" width="5" height="5" fill="#ffe1ef" transform="rotate(45 803.2 -47.1)">
      <animateTransform attributeName="transform" type="translate" additive="sum"
        values="0,0; 35,90; -21,180; 35,260; 0,330"
        keyTimes="0;0.25;0.5;0.75;1" dur="12.34s" begin="-9.8s" repeatCount="indefinite"/>
      <animate attributeName="opacity" values="0;0.9;0.9;0.9;0" keyTimes="0;0.1;0.5;0.85;1" dur="12.34s" begin="-9.8s" repeatCount="indefinite"/>
    </rect>
<rect x="738.5" y="10.0" width="7" height="7" fill="#ffc9e3" transform="rotate(45 738.5 10.0)">
      <animateTransform attributeName="transform" type="translate" additive="sum"
        values="0,0; 53,90; -32,180; 53,260; 0,330"
        keyTimes="0;0.25;0.5;0.75;1" dur="10.14s" begin="-0.85s" repeatCount="indefinite"/>
      <animate attributeName="opacity" values="0;0.9;0.9;0.9;0" keyTimes="0;0.1;0.5;0.85;1" dur="10.14s" begin="-0.85s" repeatCount="indefinite"/>
    </rect>
<rect x="850.8" y="-46.0" width="5" height="5" fill="#ff9fc9" transform="rotate(45 850.8 -46.0)">
      <animateTransform attributeName="transform" type="translate" additive="sum"
        values="0,0; 46,90; -27,180; 46,260; 0,330"
        keyTimes="0;0.25;0.5;0.75;1" dur="11.03s" begin="-9.1s" repeatCount="indefinite"/>
      <animate attributeName="opacity" values="0;0.9;0.9;0.9;0" keyTimes="0;0.1;0.5;0.85;1" dur="11.03s" begin="-9.1s" repeatCount="indefinite"/>
    </rect>
<rect x="30.8" y="72.6" width="6" height="6" fill="#ffe1ef" transform="rotate(45 30.8 72.6)">
      <animateTransform attributeName="transform" type="translate" additive="sum"
        values="0,0; 53,90; -32,180; 53,260; 0,330"
        keyTimes="0;0.25;0.5;0.75;1" dur="7.6s" begin="-6.01s" repeatCount="indefinite"/>
      <animate attributeName="opacity" values="0;0.9;0.9;0.9;0" keyTimes="0;0.1;0.5;0.85;1" dur="7.6s" begin="-6.01s" repeatCount="indefinite"/>
    </rect>
<rect x="173.6" y="-11.8" width="7" height="7" fill="#ff9fc9" transform="rotate(45 173.6 -11.8)">
      <animateTransform attributeName="transform" type="translate" additive="sum"
        values="0,0; 33,90; -20,180; 33,260; 0,330"
        keyTimes="0;0.25;0.5;0.75;1" dur="8.47s" begin="-9.3s" repeatCount="indefinite"/>
      <animate attributeName="opacity" values="0;0.9;0.9;0.9;0" keyTimes="0;0.1;0.5;0.85;1" dur="8.47s" begin="-9.3s" repeatCount="indefinite"/>
    </rect>
<rect x="836.1" y="69.6" width="6" height="6" fill="#ffe1ef" transform="rotate(45 836.1 69.6)">
      <animateTransform attributeName="transform" type="translate" additive="sum"
        values="0,0; 69,90; -42,180; 69,260; 0,330"
        keyTimes="0;0.25;0.5;0.75;1" dur="10.92s" begin="-12.9s" repeatCount="indefinite"/>
      <animate attributeName="opacity" values="0;0.9;0.9;0.9;0" keyTimes="0;0.1;0.5;0.85;1" dur="10.92s" begin="-12.9s" repeatCount="indefinite"/>
    </rect>
<rect x="1100.8" y="-87.9" width="7" height="7" fill="#ffe1ef" transform="rotate(45 1100.8 -87.9)">
      <animateTransform attributeName="transform" type="translate" additive="sum"
        values="0,0; 65,90; -39,180; 65,260; 0,330"
        keyTimes="0;0.25;0.5;0.75;1" dur="8.59s" begin="-1.43s" repeatCount="indefinite"/>
      <animate attributeName="opacity" values="0;0.9;0.9;0.9;0" keyTimes="0;0.1;0.5;0.85;1" dur="8.59s" begin="-1.43s" repeatCount="indefinite"/>
    </rect>
<rect x="200.3" y="-32.7" width="7" height="7" fill="#ff9fc9" transform="rotate(45 200.3 -32.7)">
      <animateTransform attributeName="transform" type="translate" additive="sum"
        values="0,0; 38,90; -23,180; 38,260; 0,330"
        keyTimes="0;0.25;0.5;0.75;1" dur="9.06s" begin="-4.06s" repeatCount="indefinite"/>
      <animate attributeName="opacity" values="0;0.9;0.9;0.9;0" keyTimes="0;0.1;0.5;0.85;1" dur="9.06s" begin="-4.06s" repeatCount="indefinite"/>
    </rect>
<rect x="586.7" y="160.7" width="5" height="5" fill="#ff9fc9" transform="rotate(45 586.7 160.7)">
      <animateTransform attributeName="transform" type="translate" additive="sum"
        values="0,0; 64,90; -38,180; 64,260; 0,330"
        keyTimes="0;0.25;0.5;0.75;1" dur="7.55s" begin="-7.49s" repeatCount="indefinite"/>
      <animate attributeName="opacity" values="0;0.9;0.9;0.9;0" keyTimes="0;0.1;0.5;0.85;1" dur="7.55s" begin="-7.49s" repeatCount="indefinite"/>
    </rect>
<rect x="24.1" y="119.0" width="7" height="7" fill="#ffe1ef" transform="rotate(45 24.1 119.0)">
      <animateTransform attributeName="transform" type="translate" additive="sum"
        values="0,0; 55,90; -33,180; 55,260; 0,330"
        keyTimes="0;0.25;0.5;0.75;1" dur="8.57s" begin="-3.36s" repeatCount="indefinite"/>
      <animate attributeName="opacity" values="0;0.9;0.9;0.9;0" keyTimes="0;0.1;0.5;0.85;1" dur="8.57s" begin="-3.36s" repeatCount="indefinite"/>
    </rect>
<rect x="516.1" y="-117.0" width="5" height="5" fill="#ffe1ef" transform="rotate(45 516.1 -117.0)">
      <animateTransform attributeName="transform" type="translate" additive="sum"
        values="0,0; 33,90; -20,180; 33,260; 0,330"
        keyTimes="0;0.25;0.5;0.75;1" dur="12.3s" begin="-1.25s" repeatCount="indefinite"/>
      <animate attributeName="opacity" values="0;0.9;0.9;0.9;0" keyTimes="0;0.1;0.5;0.85;1" dur="12.3s" begin="-1.25s" repeatCount="indefinite"/>
    </rect>
<rect x="988.1" y="60.6" width="6" height="6" fill="#ffc9e3" transform="rotate(45 988.1 60.6)">
      <animateTransform attributeName="transform" type="translate" additive="sum"
        values="0,0; 36,90; -22,180; 36,260; 0,330"
        keyTimes="0;0.25;0.5;0.75;1" dur="7.76s" begin="-8.99s" repeatCount="indefinite"/>
      <animate attributeName="opacity" values="0;0.9;0.9;0.9;0" keyTimes="0;0.1;0.5;0.85;1" dur="7.76s" begin="-8.99s" repeatCount="indefinite"/>
    </rect>
<rect x="263.7" y="-42.6" width="7" height="7" fill="#ff9fc9" transform="rotate(45 263.7 -42.6)">
      <animateTransform attributeName="transform" type="translate" additive="sum"
        values="0,0; 34,90; -20,180; 34,260; 0,330"
        keyTimes="0;0.25;0.5;0.75;1" dur="11.68s" begin="-1.51s" repeatCount="indefinite"/>
      <animate attributeName="opacity" values="0;0.9;0.9;0.9;0" keyTimes="0;0.1;0.5;0.85;1" dur="11.68s" begin="-1.51s" repeatCount="indefinite"/>
    </rect>
<rect x="889.4" y="167.0" width="6" height="6" fill="#ffc9e3" transform="rotate(45 889.4 167.0)">
      <animateTransform attributeName="transform" type="translate" additive="sum"
        values="0,0; 39,90; -24,180; 39,260; 0,330"
        keyTimes="0;0.25;0.5;0.75;1" dur="7.98s" begin="-2.6s" repeatCount="indefinite"/>
      <animate attributeName="opacity" values="0;0.9;0.9;0.9;0" keyTimes="0;0.1;0.5;0.85;1" dur="7.98s" begin="-2.6s" repeatCount="indefinite"/>
    </rect>
<rect x="48.8" y="108.3" width="5" height="5" fill="#ffe1ef" transform="rotate(45 48.8 108.3)">
      <animateTransform attributeName="transform" type="translate" additive="sum"
        values="0,0; 43,90; -26,180; 43,260; 0,330"
        keyTimes="0;0.25;0.5;0.75;1" dur="12.58s" begin="-2.57s" repeatCount="indefinite"/>
      <animate attributeName="opacity" values="0;0.9;0.9;0.9;0" keyTimes="0;0.1;0.5;0.85;1" dur="12.58s" begin="-2.57s" repeatCount="indefinite"/>
    </rect>
<rect x="329.5" y="124.1" width="5" height="5" fill="#ffc9e3" transform="rotate(45 329.5 124.1)">
      <animateTransform attributeName="transform" type="translate" additive="sum"
        values="0,0; 34,90; -21,180; 34,260; 0,330"
        keyTimes="0;0.25;0.5;0.75;1" dur="12.23s" begin="-1.84s" repeatCount="indefinite"/>
      <animate attributeName="opacity" values="0;0.9;0.9;0.9;0" keyTimes="0;0.1;0.5;0.85;1" dur="12.23s" begin="-1.84s" repeatCount="indefinite"/>
    </rect>
<rect x="967.2" y="22.7" width="7" height="7" fill="#ffc9e3" transform="rotate(45 967.2 22.7)">
      <animateTransform attributeName="transform" type="translate" additive="sum"
        values="0,0; 42,90; -25,180; 42,260; 0,330"
        keyTimes="0;0.25;0.5;0.75;1" dur="11.77s" begin="-10.04s" repeatCount="indefinite"/>
      <animate attributeName="opacity" values="0;0.9;0.9;0.9;0" keyTimes="0;0.1;0.5;0.85;1" dur="11.77s" begin="-10.04s" repeatCount="indefinite"/>
    </rect>
<rect x="244.0" y="-18.2" width="7" height="7" fill="#ffe1ef" transform="rotate(45 244.0 -18.2)">
      <animateTransform attributeName="transform" type="translate" additive="sum"
        values="0,0; 65,90; -39,180; 65,260; 0,330"
        keyTimes="0;0.25;0.5;0.75;1" dur="12.8s" begin="-9.37s" repeatCount="indefinite"/>
      <animate attributeName="opacity" values="0;0.9;0.9;0.9;0" keyTimes="0;0.1;0.5;0.85;1" dur="12.8s" begin="-9.37s" repeatCount="indefinite"/>
    </rect>
<rect x="483.6" y="184.2" width="5" height="5" fill="#ff9fc9" transform="rotate(45 483.6 184.2)">
      <animateTransform attributeName="transform" type="translate" additive="sum"
        values="0,0; 51,90; -31,180; 51,260; 0,330"
        keyTimes="0;0.25;0.5;0.75;1" dur="12.64s" begin="-11.5s" repeatCount="indefinite"/>
      <animate attributeName="opacity" values="0;0.9;0.9;0.9;0" keyTimes="0;0.1;0.5;0.85;1" dur="12.64s" begin="-11.5s" repeatCount="indefinite"/>
    </rect>
<rect x="693.5" y="184.9" width="6" height="6" fill="#ff9fc9" transform="rotate(45 693.5 184.9)">
      <animateTransform attributeName="transform" type="translate" additive="sum"
        values="0,0; 32,90; -19,180; 32,260; 0,330"
        keyTimes="0;0.25;0.5;0.75;1" dur="10.58s" begin="-8.51s" repeatCount="indefinite"/>
      <animate attributeName="opacity" values="0;0.9;0.9;0.9;0" keyTimes="0;0.1;0.5;0.85;1" dur="10.58s" begin="-8.51s" repeatCount="indefinite"/>
    </rect>
<circle cx="706.2" cy="201.1" r="2.4" fill="#ffe98a">
      <animateTransform attributeName="transform" type="translate" values="0,0; -12,8; -25,17; 0,0" dur="6.3s" begin="1.73s" repeatCount="indefinite"/>
      <animate attributeName="opacity" values="0.1;1;0.2;0.9;0.1" dur="3.96s" begin="1.73s" repeatCount="indefinite"/>
    </circle>
<circle cx="638.5" cy="221.9" r="2.4" fill="#ffe98a">
      <animateTransform attributeName="transform" type="translate" values="0,0; -7,-17; 8,-7; 0,0" dur="7.8s" begin="2.01s" repeatCount="indefinite"/>
      <animate attributeName="opacity" values="0.1;1;0.2;0.9;0.1" dur="4.85s" begin="2.01s" repeatCount="indefinite"/>
    </circle>
<circle cx="413.9" cy="234.8" r="2.4" fill="#ffe98a">
      <animateTransform attributeName="transform" type="translate" values="0,0; -10,-4; -5,-8; 0,0" dur="7.7s" begin="0.9s" repeatCount="indefinite"/>
      <animate attributeName="opacity" values="0.1;1;0.2;0.9;0.1" dur="4.8s" begin="0.9s" repeatCount="indefinite"/>
    </circle>
<circle cx="227.3" cy="192.0" r="2.4" fill="#ffe98a">
      <animateTransform attributeName="transform" type="translate" values="0,0; 20,5; -10,2; 0,0" dur="8.6s" begin="2.03s" repeatCount="indefinite"/>
      <animate attributeName="opacity" values="0.1;1;0.2;0.9;0.1" dur="5.35s" begin="2.03s" repeatCount="indefinite"/>
    </circle>
<circle cx="100.4" cy="178.7" r="2.4" fill="#ffe98a">
      <animateTransform attributeName="transform" type="translate" values="0,0; 8,-1; -3,-11; 0,0" dur="6.5s" begin="1.74s" repeatCount="indefinite"/>
      <animate attributeName="opacity" values="0.1;1;0.2;0.9;0.1" dur="4.07s" begin="1.74s" repeatCount="indefinite"/>
    </circle>
<circle cx="573.2" cy="240.1" r="2.4" fill="#ffe98a">
      <animateTransform attributeName="transform" type="translate" values="0,0; -21,1; 7,-7; 0,0" dur="8.0s" begin="0.51s" repeatCount="indefinite"/>
      <animate attributeName="opacity" values="0.1;1;0.2;0.9;0.1" dur="4.99s" begin="0.51s" repeatCount="indefinite"/>
    </circle>
<circle cx="918.4" cy="225.1" r="2.4" fill="#ffe98a">
      <animateTransform attributeName="transform" type="translate" values="0,0; -15,-19; -13,-1; 0,0" dur="7.5s" begin="0.67s" repeatCount="indefinite"/>
      <animate attributeName="opacity" values="0.1;1;0.2;0.9;0.1" dur="4.68s" begin="0.67s" repeatCount="indefinite"/>
    </circle>
<circle cx="949.7" cy="157.3" r="2.4" fill="#ffe98a">
      <animateTransform attributeName="transform" type="translate" values="0,0; -15,8; -0,-10; 0,0" dur="6.5s" begin="1.89s" repeatCount="indefinite"/>
      <animate attributeName="opacity" values="0.1;1;0.2;0.9;0.1" dur="4.04s" begin="1.89s" repeatCount="indefinite"/>
    </circle>
<circle cx="756.1" cy="150.6" r="2.4" fill="#ffe98a">
      <animateTransform attributeName="transform" type="translate" values="0,0; -20,-3; -16,18; 0,0" dur="7.8s" begin="2.31s" repeatCount="indefinite"/>
      <animate attributeName="opacity" values="0.1;1;0.2;0.9;0.1" dur="4.88s" begin="2.31s" repeatCount="indefinite"/>
    </circle>

</g>

<!-- frame border -->
<rect x="1" y="1" width="1198" height="298" rx="10" fill="none" stroke="#3a2b45" stroke-width="2"/>

<g transform="translate(-320,22)">
  <animateTransform attributeName="transform" type="translate"
    values="-320,22; -320,22; 30,22; 30,22; -320,22"
    keyTimes="0;0.05;0.18;0.55;0.7"
    dur="11s" repeatCount="indefinite"/>
  <rect x="0" y="0" width="272" height="56" fill="#2b2118" stroke="#d9a441" stroke-width="2"/>
  <rect x="0" y="0" width="272" height="56" fill="none" stroke="#000" stroke-width="4" opacity="0.35"/>
  <rect x="10" y="10" width="36" height="36" fill="#6b8f3f"/>
  <rect x="10" y="10" width="36" height="10" fill="#8fb35c"/>
  <rect x="10" y="34" width="36" height="12" fill="#5a4a3a"/>
  <text x="56" y="22" font-family="Courier New, monospace" font-weight="bold" font-size="11" fill="#d9a441">ACHIEVEMENT GET!</text>
  <text x="56" y="40" font-family="Courier New, monospace" font-weight="bold" font-size="13" fill="#ffffff">Found this profile</text>
</g>

<text x="600" y="288" text-anchor="middle" font-family="Courier New, monospace" font-size="11" fill="#f4e3ee" opacity="0.55" letter-spacing="2">A QUIET CORNER OF THE OVERWORLD, AT DUSK</text>
</svg>
